<?xml version="1.0" standalone="no"?>
<!DOCTYPE svg PUBLIC "-//W3C//DTD SVG 20010904//EN"
 "http://www.w3.org/TR/2001/REC-SVG-20010904/DTD/svg10.dtd">
<svg version="1.0" xmlns="http://www.w3.org/2000/svg"
 width="256.000000pt" height="256.000000pt" viewBox="0 0 256.000000 256.000000"
 preserveAspectRatio="xMidYMid meet">

<g transform="translate(0.000000,256.000000) scale(0.100000,-0.100000)"
fill="#000000" stroke="none">
<path d="M1257 2173 c-4 -3 -7 -23 -7 -44 0 -31 4 -37 24 -41 21 -4 24 -1 29
36 3 22 3 44 1 48 -6 10 -38 11 -47 1z"/>
<path d="M1181 2141 c-11 -7 -10 -14 8 -40 13 -18 27 -28 36 -25 12 5 11 11
-2 40 -18 37 -21 38 -42 25z"/>
<path d="M1341 2115 c-11 -33 -9 -55 7 -55 4 0 18 17 30 36 19 29 21 38 10 45
-23 15 -34 10 -47 -26z"/>
<path d="M1125 2089 c-9 -13 41 -66 52 -55 9 9 -17 58 -34 63 -6 2 -14 -1 -18
-8z"/>
<path d="M1401 2071 c-12 -16 -21 -34 -21 -41 0 -19 59 33 59 53 1 26 -15 21
-38 -12z"/>
<path d="M964 2056 l-30 -32 40 1 c24 0 49 7 60 18 18 15 18 17 3 17 -10 0
-20 7 -23 15 -8 21 -14 18 -50 -19z"/>
<path d="M1550 2075 c0 -8 -9 -15 -20 -15 -20 0 -20 0 0 -20 15 -15 25 -18 43
-11 14 6 30 5 43 -2 10 -5 3 6 -16 26 -38 40 -50 45 -50 22z"/>
<path d="M1110 2020 c0 -11 4 -20 9 -20 5 0 16 -3 25 -6 25 -10 19 12 -9 30
-24 16 -25 16 -25 -4z"/>
<path d="M1414 2016 c-10 -8 -16 -18 -12 -22 10 -9 58 12 58 26 0 14 -23 12
-46 -4z"/>
<path d="M872 1968 c-54 -37 -54 -44 1 -13 52 30 101 32 146 4 25 -15 36 -17
41 -8 8 13 26 -14 41 -60 5 -17 8 -20 8 -8 1 10 -6 33 -14 52 -17 42 -49 57
-126 59 -47 2 -62 -2 -97 -26z"/>
<path d="M1542 1990 c-18 -4 -41 -15 -52 -25 -20 -18 -46 -82 -37 -91 3 -3 8
8 12 24 6 29 45 76 45 55 0 -6 17 -2 37 8 51 26 92 24 147 -7 57 -32 60 -26 4
11 -44 29 -101 39 -156 25z"/>
<path d="M1266 1939 c-19 -39 -23 -56 -15 -66 16 -19 26 -16 32 10 3 12 11 37
18 54 10 24 10 36 2 44 -7 7 -18 -4 -37 -42z"/>
<path d="M1112 1958 c3 -7 15 -14 29 -16 23 -2 23 -2 5 13 -24 18 -39 20 -34
3z"/>
<path d="M1423 1959 c-22 -8 -32 -29 -15 -29 12 0 48 28 42 33 -3 3 -15 1 -27
-4z"/>
<path d="M947 1923 c-15 -16 -19 -16 -27 -3 -7 11 -11 9 -19 -13 -15 -39 -14
-44 11 -69 21 -21 21 -21 2 -34 -36 -25 -63 -58 -69 -84 -10 -47 28 -115 80
-142 19 -10 19 -10 3 8 -10 11 -24 37 -33 58 -15 34 -15 40 -1 62 20 29 20 34
1 34 -22 0 -18 17 8 35 28 18 158 15 182 -5 11 -9 15 -9 15 -1 0 16 -62 41
-103 41 -32 0 -57 14 -57 33 0 5 17 25 38 44 36 34 36 34 9 28 -22 -6 -26 -4
-21 9 8 21 3 20 -19 -1z"/>
<path d="M1640 1924 c0 -14 -2 -14 -16 -3 -13 10 -17 10 -24 -1 -4 -7 -15 -10
-24 -7 -26 10 -18 -8 9 -23 25 -13 44 -55 31 -67 -3 -4 -31 -10 -63 -14 -36
-5 -64 -15 -77 -28 -11 -12 -15 -21 -9 -21 6 0 16 6 22 13 15 19 140 20 169 1
26 -17 29 -34 6 -34 -14 0 -14 -2 0 -22 22 -32 20 -60 -9 -102 -26 -38 -23
-45 9 -21 59 45 73 123 31 174 -14 16 -35 33 -46 36 -21 7 -21 7 1 30 18 19
21 31 16 59 -7 37 -26 59 -26 30z"/>
<path d="M1135 1890 c3 -5 10 -10 16 -10 5 0 9 5 9 10 0 6 -7 10 -16 10 -8 0
-12 -4 -9 -10z"/>
<path d="M1395 1880 c-3 -5 1 -10 9 -10 9 0 16 5 16 10 0 6 -4 10 -9 10 -6 0
-13 -4 -16 -10z"/>
<path d="M765 1850 c-18 -62 -16 -91 8 -142 25 -55 41 -75 92 -118 16 -14 8
-1 -18 27 -74 82 -84 127 -44 206 l24 46 -29 -2 c-15 -1 -30 -9 -33 -17z"/>
<path d="M1740 1867 c0 -1 9 -20 20 -42 31 -61 26 -113 -16 -176 -30 -45 -31
-50 -10 -30 80 75 102 239 33 248 -15 2 -27 2 -27 0z"/>
<path d="M1160 1840 c0 -5 5 -10 10 -10 6 0 10 5 10 10 0 6 -4 10 -10 10 -5 0
-10 -4 -10 -10z"/>
<path d="M1270 1822 c0 -30 -24 -46 -49 -32 -17 9 -21 8 -21 -4 0 -22 40 -46
77 -46 60 0 109 38 83 64 -7 7 -10 7 -10 -1 0 -14 -26 -24 -45 -17 -8 4 -15
14 -15 24 0 11 -4 22 -10 25 -5 3 -10 -3 -10 -13z"/>
<path d="M1103 1713 c9 -2 25 -2 35 0 9 3 1 5 -18 5 -19 0 -27 -2 -17 -5z"/>
<path d="M1433 1713 c9 -2 23 -2 30 0 6 3 -1 5 -18 5 -16 0 -22 -2 -12 -5z"/>
<path d="M1178 1703 c7 -3 16 -2 19 1 4 3 -2 6 -13 5 -11 0 -14 -3 -6 -6z"/>
<path d="M1318 1686 c-26 -13 -45 -26 -42 -29 4 -3 17 1 30 10 13 8 41 21 62
29 20 7 28 13 17 13 -11 0 -41 -11 -67 -23z"/>
<path d="M1211 1696 c2 -2 15 -9 29 -15 24 -11 24 -11 6 3 -16 13 -49 24 -35
12z"/>
<path d="M1128 1613 c7 -3 16 -2 19 1 4 3 -2 6 -13 5 -11 0 -14 -3 -6 -6z"/>
<path d="M1428 1613 c7 -3 16 -2 19 1 4 3 -2 6 -13 5 -11 0 -14 -3 -6 -6z"/>
<path d="M765 1557 c5 -18 1 -26 -17 -35 l-23 -11 23 0 c21 -1 23 -4 17 -31
-9 -40 6 -38 45 6 29 34 34 36 73 30 23 -4 96 -10 162 -15 76 -4 131 -13 150
-23 37 -19 139 -18 175 2 15 8 75 17 145 21 66 5 140 11 163 15 41 6 46 4 84
-32 l41 -39 -6 32 c-5 27 -3 32 16 36 l22 4 -22 8 c-26 8 -27 10 -13 36 14 25
-8 26 -41 0 -13 -10 -42 -20 -64 -24 -22 -3 -49 -9 -59 -13 -16 -6 -18 -4 -13
10 4 10 3 15 -3 11 -6 -3 -10 0 -10 7 0 30 -212 17 -285 -18 -36 -17 -40 -17
-115 12 -43 16 -260 28 -258 14 1 -3 -2 -12 -6 -21 -6 -13 -14 -14 -59 -5 -29
6 -65 19 -80 29 -36 23 -49 22 -42 -6z"/>
<path d="M838 1448 c-52 -30 -56 -47 -17 -82 l32 -29 14 26 c7 15 33 38 58 53
25 14 45 29 45 34 0 8 -49 20 -79 20 -9 0 -33 -10 -53 -22z"/>
<path d="M1611 1459 c-24 -10 -24 -10 27 -45 29 -19 52 -38 52 -42 0 -4 4 -13
9 -21 7 -11 13 -10 34 4 49 32 45 66 -14 95 -42 22 -71 24 -108 9z"/>
<path d="M954 1398 c-60 -41 -69 -75 -28 -107 35 -27 54 -27 54 2 0 24 47 75
90 98 l25 12 -30 13 c-45 19 -58 17 -111 -18z"/>
<path d="M1495 1415 c-16 -7 -25 -14 -19 -14 6 -1 32 -19 58 -42 31 -27 46
-49 46 -65 0 -27 8 -29 45 -12 26 12 41 47 31 73 -7 19 -94 75 -115 75 -9 -1
-29 -7 -46 -15z"/>
<path d="M1070 1361 c-60 -57 -65 -87 -19 -125 17 -14 41 -26 53 -26 21 0 23
5 22 44 -1 35 6 54 32 90 21 31 28 48 20 50 -51 16 -59 13 -108 -33z"/>
<path d="M1402 1402 c-29 -9 -29 -12 4 -67 20 -34 25 -55 22 -86 l-4 -41 36 6
c39 6 80 46 80 77 0 18 -95 120 -109 118 -3 -1 -16 -4 -29 -7z"/>
<path d="M1200 1343 c-17 -26 -30 -59 -30 -75 0 -64 98 -99 175 -62 42 20 52
57 30 110 -25 61 -42 74 -97 74 -47 0 -49 -2 -78 -47z"/>
<path d="M735 1150 c3 -5 8 -10 11 -10 2 0 4 5 4 10 0 6 -5 10 -11 10 -5 0 -7
-4 -4 -10z"/>
<path d="M1830 1149 c0 -5 5 -7 10 -4 6 3 10 8 10 11 0 2 -4 4 -10 4 -5 0 -10
-5 -10 -11z"/>
<path d="M750 735 l0 -175 30 0 30 0 0 70 0 70 34 0 c40 0 51 -11 75 -81 16
-49 21 -54 49 -57 18 -2 32 1 32 7 0 21 -39 114 -56 132 -17 19 -17 20 3 34
32 22 48 79 33 115 -20 48 -49 60 -145 60 l-85 0 0 -175z m148 119 c50 -35 11
-110 -55 -102 -25 3 -28 7 -31 47 -2 24 -1 50 2 57 7 19 56 18 84 -2z"/>
<path d="M1060 734 l0 -175 28 3 27 3 3 173 2 172 -30 0 -30 0 0 -176z"/>
<path d="M1190 735 l0 -175 30 0 29 0 3 118 3 117 51 -89 51 -88 20 28 c11 16
35 56 54 89 l34 60 3 -117 3 -118 29 0 30 0 0 175 0 175 -34 0 c-33 0 -37 -4
-83 -85 -26 -47 -50 -85 -53 -85 -3 0 -25 38 -50 85 -44 83 -46 85 -82 85
l-38 0 0 -175z"/>
<path d="M1580 886 c0 -23 5 -25 48 -28 l47 -3 3 -147 3 -148 29 0 29 0 3 148
3 147 48 3 c42 3 47 5 47 28 l0 24 -130 0 -130 0 0 -24z"/>
<path d="M747 498 c-8 -24 4 -92 20 -110 21 -23 55 -23 76 0 19 21 24 122 7
122 -5 0 -10 -22 -10 -49 0 -95 -62 -97 -68 -2 -3 48 -14 66 -25 39z"/>
<path d="M890 440 c0 -78 17 -96 22 -22 l3 47 33 -47 c18 -27 37 -48 42 -48 6
0 10 32 10 70 0 40 -4 70 -10 70 -5 0 -10 -18 -10 -40 0 -22 -3 -40 -8 -40 -4
0 -18 18 -32 40 -37 60 -50 52 -50 -30z"/>
<path d="M1030 440 c0 -40 4 -70 10 -70 6 0 10 30 10 70 0 40 -4 70 -10 70 -6
0 -10 -30 -10 -70z"/>
<path d="M1078 505 c-9 -9 45 -136 56 -132 9 3 56 111 56 129 0 24 -21 2 -35
-37 -10 -24 -21 -43 -25 -40 -3 2 -12 22 -20 44 -13 39 -20 47 -32 36z"/>
<path d="M1214 496 c-3 -7 -4 -38 -2 -67 l3 -54 43 -3 c25 -2 42 1 42 7 0 6
-13 11 -30 11 -23 0 -30 4 -30 20 0 16 7 20 30 20 17 0 30 5 30 10 0 6 -13 10
-30 10 -23 0 -30 4 -30 20 0 16 7 20 30 20 17 0 30 5 30 10 0 16 -80 12 -86
-4z"/>
<path d="M1330 440 c0 -40 4 -70 10 -70 6 0 10 14 10 30 0 38 16 38 38 0 9
-16 20 -30 25 -30 9 0 9 4 -3 34 -6 16 -6 35 0 50 11 30 -14 56 -53 56 -27 0
-27 -1 -27 -70z m60 31 c0 -19 -23 -35 -34 -24 -14 15 -5 43 14 43 13 0 20 -7
20 -19z"/>
<path d="M1456 495 c-9 -9 -16 -20 -16 -25 0 -13 28 -38 51 -45 27 -9 18 -30
-14 -30 -37 0 -44 -13 -12 -21 59 -15 86 48 33 74 -36 17 -38 46 -3 39 16 -3
24 0 22 7 -6 18 -43 18 -61 1z"/>
<path d="M1560 440 c0 -40 4 -70 10 -70 6 0 10 30 10 70 0 40 -4 70 -10 70 -6
0 -10 -30 -10 -70z"/>
<path d="M1600 501 c0 -5 9 -11 20 -14 17 -4 20 -14 20 -61 0 -31 5 -56 10
-56 6 0 10 27 10 60 0 53 2 60 20 60 11 0 20 5 20 10 0 6 -22 10 -50 10 -27 0
-50 -4 -50 -9z"/>
<path d="M1720 498 c0 -7 9 -24 20 -38 11 -14 20 -40 20 -57 0 -18 5 -33 10
-33 6 0 10 11 10 26 0 14 11 42 25 62 14 20 25 40 25 44 0 18 -19 6 -38 -23
l-19 -31 -19 31 c-19 32 -34 40 -34 19z"/>
</g>
</svg>
